<?xml version="1.0" encoding="UTF-8" standalone="no"?>
<svg
        xmlns="http://www.w3.org/2000/svg"
        width="69.512268mm"
        height="68.704926mm"
        viewBox="0 0 69.512268 68.704926"
        version="1.1"
        id="svg8">
    <defs
            id="defs2"/>
    <g
            transform="translate(-45.831482,-59.57462)"
            id="layer1">
        <rect
                rx="10.314933"
                ry="10.314933"
                y="95.25"
                x="81.800232"
                height="32.779549"
                width="33.293518"
                id="rect833-1"
                style="fill:#e1c343;fill-opacity:1;fill-rule:evenodd;stroke:#e1c343;stroke-width:0.499999;stroke-linecap:round;stroke-linejoin:round;stroke-opacity:1;stop-color:#000000"/>
        <rect
                style="fill:#0588e0;fill-opacity:1;fill-rule:evenodd;stroke:#0588e0;stroke-width:0.499999;stroke-linecap:round;stroke-linejoin:round;stroke-opacity:1;stop-color:#000000"
                id="rect833"
                width="33.293514"
                height="32.779549"
                x="46.081482"
                y="59.824619"
                ry="10.314933"
                rx="10.314933"/>
        <path
                style="fill:#afb4c2;fill-opacity:1;stroke:none;stroke-width:0.264583px;stroke-linecap:butt;stroke-linejoin:miter;stroke-opacity:1"
                d="m 100.57508,88.595461 c -0.0259,-0.996212 0.0473,-11.741556 0.0473,-11.741556 -0.0807,-2.770572 -0.0807,-2.770572 -2.726527,-2.770572 l -11.90628,10e-7 c -1.322916,0 3e-5,-1.322917 3e-5,-2.645834 -1.322916,0 -3.96878,3.968751 -3.96878,4.608948 0,0.673502 2.640755,4.65147 3.96875,4.65147 -0.0167,-1.302939 -1.322916,-2.645834 0,-2.645834 l 7.93753,-10e-7 c 2.655991,0 2.645834,0 2.645834,2.645834 0,0 -0.01706,4.294207 0.0128,7.969711 0,1.322917 -1.335737,-0.03221 -2.625255,-0.07219 -0.0334,1.362895 3.909697,4.004507 4.607628,3.998106 0.62498,-0.0057 4.61941,-2.635211 4.61938,-3.958126 -1.32289,-10e-7 -2.64583,1.322916 -2.61242,-0.03996 z"
                id="path887"/>
        <path
                id="path887-2"
                d="m 75.36629,113.80425 c -0.99621,-0.0259 -11.74155,0.0473 -11.74155,0.0473 -2.77057,-0.0807 -2.77057,-0.0807 -2.77057,-2.72652 V 99.21875 c 0,-1.322923 -1.32292,3e-5 -2.64583,3e-5 0,-1.322923 3.96875,-3.96878 4.60894,-3.96878 0.67351,0 4.65147,2.640747 4.65147,3.96875 -1.30294,-0.0167 -2.64583,-1.322923 -2.64583,0 v 7.93753 c 0,2.65599 0,2.64583 2.64583,2.64583 0,0 4.29421,-0.0171 7.96971,0.0128 1.32292,0 -0.0322,-1.33574 -0.0722,-2.62525 1.36289,-0.0334 4.00451,3.90969 3.99811,4.60762 -0.006,0.62498 -2.63522,4.61941 -3.95813,4.61938 0,-1.32289 1.32292,-2.64583 -0.04,-2.61242 z"
                style="fill:#afb4c2;fill-opacity:1;stroke:none;stroke-width:0.264583px;stroke-linecap:butt;stroke-linejoin:miter;stroke-opacity:1"/>
        <text
                xml:space="preserve"
                style="font-style:normal;font-weight:normal;font-size:10.5833px;line-height:1.25;font-family:sans-serif;fill:#000000;fill-opacity:1;stroke:none;stroke-width:0.265;stroke-miterlimit:4;stroke-dasharray:none"
                x="54.545177"
                y="85.034676"
                id="text916"><tspan
         id="tspan914"
         x="54.545177"
         y="85.034676"
         style="font-style:normal;font-variant:normal;font-weight:normal;font-stretch:normal;font-size:25.4px;font-family:Bahnschrift;-inkscape-font-specification:'Bahnschrift, @wght=400,wdth=100.0';font-variant-ligatures:normal;font-variant-caps:normal;font-variant-numeric:normal;font-variant-east-asian:normal;font-variation-settings:'wdth' 100, 'wght' 400;fill:#ffffff;fill-opacity:1;stroke-width:0.265;stroke-miterlimit:4;stroke-dasharray:none">A</tspan></text>
        <text
                xml:space="preserve"
                style="font-style:normal;font-variant:normal;font-weight:normal;font-stretch:normal;font-size:25.4px;line-height:1.25;font-family:sans-serif;-inkscape-font-specification:'sans-serif, Normal';font-variant-ligatures:normal;font-variant-caps:normal;font-variant-numeric:normal;font-variant-east-asian:normal;fill:#ffffff;fill-opacity:1;stroke:none;stroke-width:0.265;stroke-miterlimit:4;stroke-dasharray:none"
                x="85.706108"
                y="120.4799"
                id="text920"><tspan
         id="tspan918"
         x="85.706108"
         y="120.4799"
         style="font-style:normal;font-variant:normal;font-weight:normal;font-stretch:normal;font-size:25.4px;font-family:sans-serif;-inkscape-font-specification:'sans-serif, Normal';font-variant-ligatures:normal;font-variant-caps:normal;font-variant-numeric:normal;font-variant-east-asian:normal;fill:#ffffff;fill-opacity:1;stroke-width:0.265;stroke-miterlimit:4;stroke-dasharray:none">丈</tspan></text>
    </g>
</svg>
